<svg class="hidden">
  <symbol viewBox="-21 -117 682.667 682" xmlns="http://www.w3.org/2000/svg" id="youtube">
    <path d="M626.813 64.035c-7.375-27.418-28.993-49.031-56.407-56.414C520.324-6.082 319.992-6.082 319.992-6.082s-200.324 0-250.406 13.184c-26.887 7.375-49.031 29.52-56.406 56.933C0 114.113 0 217.97 0 217.97s0 104.379 13.18 153.933c7.382 27.414 28.992 49.028 56.41 56.41C120.195 442.02 320 442.02 320 442.02s200.324 0 250.406-13.184c27.418-7.379 49.032-28.992 56.414-56.406 13.176-50.082 13.176-153.934 13.176-153.934s.527-104.383-13.183-154.46zM256.21 313.915V122.022l166.586 95.946zm0 0"></path>
  </symbol>
  <symbol viewBox="0 0 24 24" xmlns="http://www.w3.org/2000/svg" id="facebook">
    <path d="M15.997 3.985h2.191V.169C17.81.117 16.51 0 14.996 0c-3.159 0-5.323 1.987-5.323 5.639V9H6.187v4.266h3.486V24h4.274V13.267h3.345l.531-4.266h-3.877V6.062c.001-1.233.333-2.077 2.051-2.077z"></path>
  </symbol>
  <symbol viewBox="0 0 24 24" xmlns="http://www.w3.org/2000/svg" id="linkedin">
    <path d="M23.994 24v-.001H24v-8.802c0-4.306-.927-7.623-5.961-7.623-2.42 0-4.044 1.328-4.707 2.587h-.07V7.976H8.489v16.023h4.97v-7.934c0-2.089.396-4.109 2.983-4.109 2.549 0 2.587 2.384 2.587 4.243V24zM.396 7.977h4.976V24H.396zM2.882 0C1.291 0 0 1.291 0 2.882s1.291 2.909 2.882 2.909 2.882-1.318 2.882-2.909A2.884 2.884 0 0 0 2.882 0z"></path>
  </symbol>
  <symbol xmlns="http://www.w3.org/2000/svg" viewBox="0 0 512 512" id="twitter">
    <path d="M512 97.248c-19.04 8.352-39.328 13.888-60.48 16.576 21.76-12.992 38.368-33.408 46.176-58.016-20.288 12.096-42.688 20.64-66.56 25.408C411.872 60.704 384.416 48 354.464 48c-58.112 0-104.896 47.168-104.896 104.992 0 8.32.704 16.32 2.432 23.936-87.264-4.256-164.48-46.08-216.352-109.792-9.056 15.712-14.368 33.696-14.368 53.056 0 36.352 18.72 68.576 46.624 87.232-16.864-.32-33.408-5.216-47.424-12.928v1.152c0 51.008 36.384 93.376 84.096 103.136-8.544 2.336-17.856 3.456-27.52 3.456-6.72 0-13.504-.384-19.872-1.792 13.6 41.568 52.192 72.128 98.08 73.12-35.712 27.936-81.056 44.768-130.144 44.768-8.608 0-16.864-.384-25.12-1.44C46.496 446.88 101.6 464 161.024 464c193.152 0 298.752-160 298.752-298.688 0-4.64-.16-9.12-.384-13.568 20.832-14.784 38.336-33.248 52.608-54.496z"></path>
  </symbol>
  <symbol viewBox="0 0 409.294 409.294" xmlns="http://www.w3.org/2000/svg" id="quote">
    <path d="M0 204.647v175.412h175.412V204.647H58.471c0-64.48 52.461-116.941 116.941-116.941V29.235C78.684 29.235 0 107.919 0 204.647zM409.294 87.706V29.235c-96.728 0-175.412 78.684-175.412 175.412v175.412h175.412V204.647H292.353c0-64.48 52.461-116.941 116.941-116.941z"></path>
  </symbol>
  <symbol xmlns="http://www.w3.org/2000/svg" viewBox="0 0 60 61" id="done">
    <path fill="#ff6363" d="M41.672 2.867c3.656 1.547 6.842 3.68 9.562 6.398 2.718 2.72 4.852 5.907 6.399 9.563 1.547 3.656 2.32 7.548 2.32 11.672 0 4.126-.773 8.015-2.32 11.672-1.547 3.656-3.68 6.844-6.399 9.562-2.72 2.72-5.906 4.852-9.562 6.399-3.656 1.546-7.548 2.32-11.672 2.32-4.127 0-8.016-.774-11.672-2.32-3.656-1.547-6.844-3.679-9.562-6.399-2.72-2.718-4.852-5.906-6.399-9.562C.82 38.515.047 34.626.047 30.5c0-4.124.773-8.016 2.32-11.672 1.547-3.656 3.678-6.842 6.399-9.563 2.718-2.717 5.906-4.851 9.562-6.398C21.984 1.32 25.873.547 30 .547c4.124 0 8.016.773 11.672 2.32zm-.914 53.016c3.326-1.453 6.258-3.397 8.789-5.836 2.437-2.531 4.381-5.46 5.836-8.79 1.452-3.326 2.18-6.912 2.18-10.757 0-3.843-.728-7.43-2.18-10.758-1.455-3.327-3.4-6.258-5.836-8.79-2.531-2.436-5.463-4.38-8.79-5.835C37.43 3.665 33.844 2.937 30 2.937c-3.845 0-7.431.728-10.758 2.18-3.329 1.455-6.258 3.4-8.789 5.836-2.439 2.531-4.383 5.462-5.836 8.789-1.454 3.329-2.18 6.915-2.18 10.758 0 3.845.726 7.43 2.18 10.758 1.453 3.329 3.397 6.258 5.836 8.789 2.531 2.439 5.46 4.383 8.79 5.836 3.326 1.454 6.912 2.18 10.757 2.18 3.843 0 7.429-.726 10.758-2.18zm5.484-36.633c.514 0 .96.189 1.336.562.281.376.422.822.422 1.336 0 .517-.19.914-.563 1.196l-20.53 19.968c-.095.19-.26.306-.493.352-.235.048-.446.07-.633.07-.281 0-.54-.022-.773-.07-.235-.046-.4-.163-.492-.352L16.5 34.297a1.818 1.818 0 0 1-.563-1.336c0-.514.187-.914.563-1.196.281-.373.679-.562 1.195-.562.514 0 .96.189 1.336.562l6.75 6.75 19.266-18.703c.281-.373.679-.562 1.195-.562z"></path>
  </symbol>
  <symbol xmlns="http://www.w3.org/2000/svg" viewBox="0 0 62 59" id="like">
    <path fill="#00a2ff" d="M61.305 30.484a5.031 5.031 0 0 1-.844 1.547 4.76 4.76 0 0 1-1.266 1.125c-.47.281-.984.516-1.547.703.282.47.515.963.703 1.477.187.516.282 1.103.282 1.758a5.32 5.32 0 0 1-.282 1.687 7.831 7.831 0 0 1-.703 1.547 9.417 9.417 0 0 1-1.265 1.055c-.47.33-.939.586-1.406.773.28.47.514.984.703 1.547.186.563.28 1.125.28 1.688 0 .656-.094 1.243-.28 1.757a8.6 8.6 0 0 1-.703 1.477 6.07 6.07 0 0 1-1.266 1.195c-.47.33-.985.54-1.547.633.374.47.655.962.844 1.476.187.517.281 1.104.281 1.758 0 .657-.14 1.314-.422 1.97a5.315 5.315 0 0 1-1.125 1.687 7.377 7.377 0 0 1-1.828 1.125 5.302 5.302 0 0 1-2.11.421H29.243c-.657 0-1.406-.092-2.25-.28a17.15 17.15 0 0 1-2.672-.844 22.741 22.741 0 0 1-2.812-1.055 74.919 74.919 0 0 0-2.813-1.196 201.903 201.903 0 0 1-3.304-1.406c-1.08-.468-1.853-.703-2.32-.703H.272V25.984l1.125-.14h10.97c.843 0 1.616-.093 2.32-.282.703-.186 1.428-.562 2.18-1.125.843-.468 1.803-1.125 2.882-1.968a286.424 286.424 0 0 0 3.867-3.094c2.905-2.437 4.617-5.485 5.133-9.14.514-3.657.773-5.766.773-6.329 0-.563.14-1.1.422-1.617a3.077 3.077 0 0 1 1.125-1.195c.468-.374.96-.633 1.477-.774a5.59 5.59 0 0 1 1.476-.21c.75 0 1.499.094 2.25.28.75.19 1.453.611 2.11 1.266.655.657 1.17 1.525 1.547 2.602.373 1.079.562 2.509.562 4.289 0 1.595-.119 3.118-.351 4.57a36.255 36.255 0 0 1-.915 4.149 23.073 23.073 0 0 1-1.054 3.585 220.38 220.38 0 0 0-1.055 2.743h19.125c.844 0 1.569.118 2.18.351A6.298 6.298 0 0 1 60.18 25c.468.47.82 1.008 1.054 1.617.233.61.352 1.29.352 2.039 0 .657-.095 1.266-.281 1.828zm-3.797.914c.373-.14.655-.351.843-.633a4.34 4.34 0 0 0 .704-.913c.186-.328.28-.726.28-1.196 0-.75-.28-1.406-.843-1.969-.562-.562-1.314-.843-2.25-.843h-8.437c0 .094 0 .094 0 0H33.32l.844-1.688c2.624-6.469 3.938-11.672 3.938-15.61 0-3.093-.517-4.897-1.547-5.413-1.033-.514-1.877-.774-2.532-.774-.28 0-.703.14-1.265.422-.563.281-.844.657-.844 1.125 0 .563-.048 1.5-.14 2.813-.095 1.314-.376 2.812-.844 4.5-.47 1.687-1.15 3.423-2.04 5.203-.891 1.782-2.133 3.329-3.726 4.64a3134.247 3134.247 0 0 0-4.008 3.305c-1.079.892-2.087 1.617-3.023 2.18a12.47 12.47 0 0 1-2.813 1.265 10.2 10.2 0 0 1-2.953.422H2.664v22.782H13.07c.655 0 1.523.21 2.602.632 1.077.422 2.412.963 4.008 1.617.749.376 1.569.774 2.46 1.196.89.422 1.758.773 2.602 1.054.936.282 1.78.541 2.531.774.75.235 1.407.352 1.97.352h18.562c.468 0 .89-.093 1.265-.282a3.78 3.78 0 0 0 .985-.703c.28-.187.492-.468.632-.844.141-.373.211-.749.211-1.125 0-.468-.07-.865-.21-1.195a2.93 2.93 0 0 0-.633-.914 2.747 2.747 0 0 0-.985-.633 3.586 3.586 0 0 0-1.265-.21h-.282v-2.391h3.235c.373 0 .749-.07 1.125-.211.373-.141.703-.352.984-.633.187-.281.374-.609.563-.984.186-.374.28-.75.28-1.125 0-.374-.094-.75-.28-1.125a9.721 9.721 0 0 0-.563-.985 9.702 9.702 0 0 0-.984-.562 2.515 2.515 0 0 0-1.125-.282h-.985v-2.39h3.516c.374 0 .75-.07 1.125-.211.374-.14.703-.352.984-.633.282-.281.515-.609.704-.984.186-.374.28-.75.28-1.125 0-.468-.094-.89-.28-1.266-.19-.374-.422-.655-.704-.844a3.814 3.814 0 0 0-.984-.703A2.515 2.515 0 0 0 53.289 34h-1.125v-2.39h4.078c.468 0 .89-.071 1.266-.212z"></path>
  </symbol>
  <symbol xmlns="http://www.w3.org/2000/svg" viewBox="0 0 58 57" id="search">
    <path fill="#5474fd" d="M54.312 56.766L38 40.453a18.608 18.608 0 0 1-3.094 2.25 24.153 24.153 0 0 1-3.515 1.688c-1.22.47-2.51.821-3.868 1.054-1.36.235-2.696.352-4.007.352-3.189 0-6.166-.609-8.93-1.828-2.766-1.218-5.181-2.859-7.242-4.922-2.064-2.061-3.68-4.476-4.852-7.242C1.32 29.04.734 26.109.734 23.015c0-3.185.585-6.163 1.758-8.93 1.171-2.763 2.788-5.178 4.852-7.241 2.06-2.061 4.476-3.679 7.242-4.852C17.35.821 20.327.234 23.516.234c3.093 0 6.022.587 8.789 1.758 2.764 1.173 5.179 2.79 7.242 4.852 2.06 2.063 3.702 4.478 4.922 7.242 1.217 2.766 1.828 5.744 1.828 8.93 0 1.313-.119 2.65-.352 4.007a20.467 20.467 0 0 1-1.054 3.867 24.486 24.486 0 0 1-1.688 3.516 18.661 18.661 0 0 1-2.25 3.094l16.313 16.312zM4.672 30.89a20.134 20.134 0 0 0 4.36 6.47 20.88 20.88 0 0 0 6.538 4.429c2.483 1.079 5.133 1.617 7.946 1.617 2.812 0 5.436-.538 7.875-1.617a21.165 21.165 0 0 0 6.468-4.43 21.19 21.19 0 0 0 4.43-6.469c1.077-2.436 1.617-5.062 1.617-7.874 0-2.813-.54-5.46-1.617-7.946a21.008 21.008 0 0 0-4.43-6.539 20.252 20.252 0 0 0-6.468-4.36c-2.44-1.03-5.063-1.546-7.875-1.546-2.813 0-5.463.516-7.946 1.547a20.007 20.007 0 0 0-6.539 4.36 19.986 19.986 0 0 0-4.36 6.538c-1.032 2.485-1.546 5.133-1.546 7.946 0 2.812.514 5.438 1.547 7.874z"></path>
  </symbol>
</svg>