<svg xmlns="http://www.w3.org/2000/svg" width="69" height="68" viewBox="0 0 69 68"><defs><clipPath id="vsdwa"><path fill="#fff" d="M63.675 67.857L34.86 12.86 6.046 67.857z"/></clipPath><clipPath id="vsdwb"><path fill="#fff" d="M34.5 0C53.002 0 68 14.87 68 33.214S53.002 66.43 34.5 66.43C15.998 66.429 1 51.558 1 33.214S15.998 0 34.5 0z"/></clipPath></defs><g><g opacity="-1"><path fill="none" stroke="#fff" stroke-miterlimit="20" stroke-width="4" d="M63.675 67.857v0L34.86 12.86v0L6.046 67.857v0z" clip-path="url(&quot;#vsdwa&quot;)"/></g><g opacity="-1"><path fill="none" stroke="#f6f7fc" stroke-miterlimit="20" stroke-width="4" d="M34.5 0C53.002 0 68 14.87 68 33.214S53.002 66.43 34.5 66.43C15.998 66.429 1 51.558 1 33.214S15.998 0 34.5 0z" clip-path="url(&quot;#vsdwb&quot;)"/></g></g></svg>